<mxfile host="app.diagrams.net" modified="2024-02-28T12:44:06.836Z" agent="Mozilla/5.0 (Windows NT 10.0; Win64; x64) AppleWebKit/537.36 (KHTML, like Gecko) Chrome/122.0.0.0 Safari/537.36 Edg/122.0.0.0" etag="Ut6N8aUFuYjNrJmL8kTx" version="23.1.7" type="github">
  <diagram id="C5RBs43oDa-KdzZeNtuy" name="Page-1">
    <mxGraphModel dx="1386" dy="759" grid="1" gridSize="10" guides="1" tooltips="1" connect="1" arrows="1" fold="1" page="1" pageScale="1" pageWidth="1200" pageHeight="1600" math="0" shadow="0">
      <root>
        <mxCell id="WIyWlLk6GJQsqaUBKTNV-0" />
        <mxCell id="WIyWlLk6GJQsqaUBKTNV-1" parent="WIyWlLk6GJQsqaUBKTNV-0" />
        <mxCell id="fSr2FpGPi5OfNqYzNsza-45" style="edgeStyle=orthogonalEdgeStyle;rounded=0;orthogonalLoop=1;jettySize=auto;html=1;strokeColor=#E07A5F;fontColor=#393C56;fillColor=#F2CC8F;" edge="1" parent="WIyWlLk6GJQsqaUBKTNV-1" source="fSr2FpGPi5OfNqYzNsza-0" target="fSr2FpGPi5OfNqYzNsza-5">
          <mxGeometry relative="1" as="geometry" />
        </mxCell>
        <mxCell id="fSr2FpGPi5OfNqYzNsza-46" style="edgeStyle=orthogonalEdgeStyle;rounded=0;orthogonalLoop=1;jettySize=auto;html=1;entryX=0.5;entryY=0;entryDx=0;entryDy=0;strokeColor=#E07A5F;fontColor=#393C56;fillColor=#F2CC8F;" edge="1" parent="WIyWlLk6GJQsqaUBKTNV-1" source="fSr2FpGPi5OfNqYzNsza-0" target="fSr2FpGPi5OfNqYzNsza-3">
          <mxGeometry relative="1" as="geometry" />
        </mxCell>
        <mxCell id="fSr2FpGPi5OfNqYzNsza-0" value="物流管理系统" style="rounded=1;whiteSpace=wrap;html=1;labelBackgroundColor=none;fillColor=#F2CC8F;strokeColor=#E07A5F;fontColor=#393C56;" vertex="1" parent="WIyWlLk6GJQsqaUBKTNV-1">
          <mxGeometry x="190" y="70" width="470" height="70" as="geometry" />
        </mxCell>
        <mxCell id="fSr2FpGPi5OfNqYzNsza-27" value="" style="edgeStyle=orthogonalEdgeStyle;rounded=0;orthogonalLoop=1;jettySize=auto;html=1;strokeColor=#E07A5F;fontColor=#393C56;fillColor=#F2CC8F;" edge="1" parent="WIyWlLk6GJQsqaUBKTNV-1" source="fSr2FpGPi5OfNqYzNsza-3" target="fSr2FpGPi5OfNqYzNsza-26">
          <mxGeometry relative="1" as="geometry" />
        </mxCell>
        <mxCell id="fSr2FpGPi5OfNqYzNsza-32" value="" style="edgeStyle=orthogonalEdgeStyle;rounded=0;orthogonalLoop=1;jettySize=auto;html=1;strokeColor=#E07A5F;fontColor=#393C56;fillColor=#F2CC8F;" edge="1" parent="WIyWlLk6GJQsqaUBKTNV-1" source="fSr2FpGPi5OfNqYzNsza-3" target="fSr2FpGPi5OfNqYzNsza-31">
          <mxGeometry relative="1" as="geometry" />
        </mxCell>
        <mxCell id="fSr2FpGPi5OfNqYzNsza-33" value="" style="edgeStyle=orthogonalEdgeStyle;rounded=0;orthogonalLoop=1;jettySize=auto;html=1;strokeColor=#E07A5F;fontColor=#393C56;fillColor=#F2CC8F;" edge="1" parent="WIyWlLk6GJQsqaUBKTNV-1" source="fSr2FpGPi5OfNqYzNsza-3" target="fSr2FpGPi5OfNqYzNsza-31">
          <mxGeometry relative="1" as="geometry" />
        </mxCell>
        <mxCell id="fSr2FpGPi5OfNqYzNsza-34" value="" style="edgeStyle=orthogonalEdgeStyle;rounded=0;orthogonalLoop=1;jettySize=auto;html=1;strokeColor=#E07A5F;fontColor=#393C56;fillColor=#F2CC8F;" edge="1" parent="WIyWlLk6GJQsqaUBKTNV-1" source="fSr2FpGPi5OfNqYzNsza-3" target="fSr2FpGPi5OfNqYzNsza-31">
          <mxGeometry relative="1" as="geometry" />
        </mxCell>
        <mxCell id="fSr2FpGPi5OfNqYzNsza-35" value="" style="edgeStyle=orthogonalEdgeStyle;rounded=0;orthogonalLoop=1;jettySize=auto;html=1;strokeColor=#E07A5F;fontColor=#393C56;fillColor=#F2CC8F;" edge="1" parent="WIyWlLk6GJQsqaUBKTNV-1" source="fSr2FpGPi5OfNqYzNsza-3" target="fSr2FpGPi5OfNqYzNsza-31">
          <mxGeometry relative="1" as="geometry" />
        </mxCell>
        <mxCell id="fSr2FpGPi5OfNqYzNsza-36" value="" style="edgeStyle=orthogonalEdgeStyle;rounded=0;orthogonalLoop=1;jettySize=auto;html=1;strokeColor=#E07A5F;fontColor=#393C56;fillColor=#F2CC8F;" edge="1" parent="WIyWlLk6GJQsqaUBKTNV-1" source="fSr2FpGPi5OfNqYzNsza-3" target="fSr2FpGPi5OfNqYzNsza-31">
          <mxGeometry relative="1" as="geometry" />
        </mxCell>
        <mxCell id="fSr2FpGPi5OfNqYzNsza-44" style="edgeStyle=orthogonalEdgeStyle;rounded=0;orthogonalLoop=1;jettySize=auto;html=1;strokeColor=#E07A5F;fontColor=#393C56;fillColor=#F2CC8F;" edge="1" parent="WIyWlLk6GJQsqaUBKTNV-1" source="fSr2FpGPi5OfNqYzNsza-3" target="fSr2FpGPi5OfNqYzNsza-42">
          <mxGeometry relative="1" as="geometry">
            <Array as="points">
              <mxPoint x="175" y="420" />
              <mxPoint x="325" y="420" />
            </Array>
          </mxGeometry>
        </mxCell>
        <mxCell id="fSr2FpGPi5OfNqYzNsza-52" style="edgeStyle=orthogonalEdgeStyle;rounded=0;orthogonalLoop=1;jettySize=auto;html=1;entryX=0.5;entryY=0;entryDx=0;entryDy=0;strokeColor=#E07A5F;fontColor=#393C56;fillColor=#F2CC8F;" edge="1" parent="WIyWlLk6GJQsqaUBKTNV-1" source="fSr2FpGPi5OfNqYzNsza-3" target="fSr2FpGPi5OfNqYzNsza-38">
          <mxGeometry relative="1" as="geometry" />
        </mxCell>
        <mxCell id="fSr2FpGPi5OfNqYzNsza-3" value="用户模块" style="rounded=1;whiteSpace=wrap;html=1;labelBackgroundColor=none;fillColor=#F2CC8F;strokeColor=#E07A5F;fontColor=#393C56;" vertex="1" parent="WIyWlLk6GJQsqaUBKTNV-1">
          <mxGeometry x="90" y="240" width="170" height="160" as="geometry" />
        </mxCell>
        <mxCell id="fSr2FpGPi5OfNqYzNsza-85" value="" style="edgeStyle=orthogonalEdgeStyle;rounded=0;orthogonalLoop=1;jettySize=auto;html=1;strokeColor=#E07A5F;fontColor=#393C56;fillColor=#F2CC8F;" edge="1" parent="WIyWlLk6GJQsqaUBKTNV-1" source="fSr2FpGPi5OfNqYzNsza-4" target="fSr2FpGPi5OfNqYzNsza-84">
          <mxGeometry relative="1" as="geometry" />
        </mxCell>
        <mxCell id="fSr2FpGPi5OfNqYzNsza-135" value="" style="edgeStyle=orthogonalEdgeStyle;rounded=0;orthogonalLoop=1;jettySize=auto;html=1;strokeColor=#E07A5F;fontColor=#393C56;fillColor=#F2CC8F;" edge="1" parent="WIyWlLk6GJQsqaUBKTNV-1" source="fSr2FpGPi5OfNqYzNsza-4" target="fSr2FpGPi5OfNqYzNsza-84">
          <mxGeometry relative="1" as="geometry" />
        </mxCell>
        <mxCell id="fSr2FpGPi5OfNqYzNsza-138" style="edgeStyle=orthogonalEdgeStyle;rounded=0;orthogonalLoop=1;jettySize=auto;html=1;entryX=0.25;entryY=0;entryDx=0;entryDy=0;strokeColor=#E07A5F;fontColor=#393C56;fillColor=#F2CC8F;" edge="1" parent="WIyWlLk6GJQsqaUBKTNV-1" source="fSr2FpGPi5OfNqYzNsza-4" target="fSr2FpGPi5OfNqYzNsza-136">
          <mxGeometry relative="1" as="geometry" />
        </mxCell>
        <mxCell id="fSr2FpGPi5OfNqYzNsza-141" style="edgeStyle=orthogonalEdgeStyle;rounded=0;orthogonalLoop=1;jettySize=auto;html=1;entryX=0.5;entryY=0;entryDx=0;entryDy=0;strokeColor=#E07A5F;fontColor=#393C56;fillColor=#F2CC8F;" edge="1" parent="WIyWlLk6GJQsqaUBKTNV-1" source="fSr2FpGPi5OfNqYzNsza-4" target="fSr2FpGPi5OfNqYzNsza-139">
          <mxGeometry relative="1" as="geometry" />
        </mxCell>
        <mxCell id="fSr2FpGPi5OfNqYzNsza-4" value="司机模块" style="rounded=1;whiteSpace=wrap;html=1;labelBackgroundColor=none;fillColor=#ffe6cc;strokeColor=#d79b00;direction=east;flipV=0;flipH=0;movable=1;resizable=1;rotatable=1;deletable=1;editable=1;locked=0;connectable=1;" vertex="1" parent="WIyWlLk6GJQsqaUBKTNV-1">
          <mxGeometry x="390" y="240" width="300" height="160" as="geometry" />
        </mxCell>
        <mxCell id="fSr2FpGPi5OfNqYzNsza-160" value="" style="edgeStyle=orthogonalEdgeStyle;rounded=0;orthogonalLoop=1;jettySize=auto;html=1;strokeColor=#E07A5F;fontColor=#393C56;fillColor=#F2CC8F;" edge="1" parent="WIyWlLk6GJQsqaUBKTNV-1" source="fSr2FpGPi5OfNqYzNsza-5" target="fSr2FpGPi5OfNqYzNsza-159">
          <mxGeometry relative="1" as="geometry" />
        </mxCell>
        <mxCell id="fSr2FpGPi5OfNqYzNsza-162" value="" style="edgeStyle=orthogonalEdgeStyle;rounded=0;orthogonalLoop=1;jettySize=auto;html=1;strokeColor=#E07A5F;fontColor=#393C56;fillColor=#F2CC8F;" edge="1" parent="WIyWlLk6GJQsqaUBKTNV-1" source="fSr2FpGPi5OfNqYzNsza-5" target="fSr2FpGPi5OfNqYzNsza-161">
          <mxGeometry relative="1" as="geometry" />
        </mxCell>
        <mxCell id="fSr2FpGPi5OfNqYzNsza-5" value="管理员模块" style="rounded=1;whiteSpace=wrap;html=1;labelBackgroundColor=none;fillColor=#F2CC8F;strokeColor=#E07A5F;fontColor=#393C56;" vertex="1" parent="WIyWlLk6GJQsqaUBKTNV-1">
          <mxGeometry x="800" y="280" width="300" height="160" as="geometry" />
        </mxCell>
        <mxCell id="fSr2FpGPi5OfNqYzNsza-23" style="edgeStyle=orthogonalEdgeStyle;rounded=0;orthogonalLoop=1;jettySize=auto;html=1;entryX=0.389;entryY=0.013;entryDx=0;entryDy=0;entryPerimeter=0;strokeColor=#E07A5F;fontColor=#393C56;fillColor=#F2CC8F;" edge="1" parent="WIyWlLk6GJQsqaUBKTNV-1" source="fSr2FpGPi5OfNqYzNsza-0" target="fSr2FpGPi5OfNqYzNsza-4">
          <mxGeometry relative="1" as="geometry" />
        </mxCell>
        <mxCell id="fSr2FpGPi5OfNqYzNsza-26" value="注册" style="rounded=1;whiteSpace=wrap;html=1;labelBackgroundColor=none;fillColor=#F2CC8F;strokeColor=#E07A5F;fontColor=#393C56;" vertex="1" parent="WIyWlLk6GJQsqaUBKTNV-1">
          <mxGeometry x="70" y="480" width="30" height="150" as="geometry" />
        </mxCell>
        <mxCell id="fSr2FpGPi5OfNqYzNsza-31" value="登录" style="rounded=1;whiteSpace=wrap;html=1;labelBackgroundColor=none;fillColor=#F2CC8F;strokeColor=#E07A5F;fontColor=#393C56;" vertex="1" parent="WIyWlLk6GJQsqaUBKTNV-1">
          <mxGeometry x="130" y="480" width="30" height="150" as="geometry" />
        </mxCell>
        <mxCell id="fSr2FpGPi5OfNqYzNsza-55" value="" style="edgeStyle=orthogonalEdgeStyle;rounded=0;orthogonalLoop=1;jettySize=auto;html=1;strokeColor=#E07A5F;fontColor=#393C56;fillColor=#F2CC8F;" edge="1" parent="WIyWlLk6GJQsqaUBKTNV-1" source="fSr2FpGPi5OfNqYzNsza-38" target="fSr2FpGPi5OfNqYzNsza-54">
          <mxGeometry relative="1" as="geometry" />
        </mxCell>
        <mxCell id="fSr2FpGPi5OfNqYzNsza-68" style="edgeStyle=orthogonalEdgeStyle;rounded=0;orthogonalLoop=1;jettySize=auto;html=1;entryX=0.5;entryY=0;entryDx=0;entryDy=0;strokeColor=#E07A5F;fontColor=#393C56;fillColor=#F2CC8F;" edge="1" parent="WIyWlLk6GJQsqaUBKTNV-1" source="fSr2FpGPi5OfNqYzNsza-38" target="fSr2FpGPi5OfNqYzNsza-59">
          <mxGeometry relative="1" as="geometry" />
        </mxCell>
        <mxCell id="fSr2FpGPi5OfNqYzNsza-38" value="个人中心" style="rounded=1;whiteSpace=wrap;html=1;labelBackgroundColor=none;fillColor=#F2CC8F;strokeColor=#E07A5F;fontColor=#393C56;labelPosition=center;verticalLabelPosition=middle;align=center;verticalAlign=middle;fontFamily=宋体;" vertex="1" parent="WIyWlLk6GJQsqaUBKTNV-1">
          <mxGeometry x="190" y="480" width="40" height="150" as="geometry" />
        </mxCell>
        <mxCell id="fSr2FpGPi5OfNqYzNsza-75" value="" style="edgeStyle=orthogonalEdgeStyle;rounded=0;orthogonalLoop=1;jettySize=auto;html=1;strokeColor=#E07A5F;fontColor=#393C56;fillColor=#F2CC8F;" edge="1" parent="WIyWlLk6GJQsqaUBKTNV-1" source="fSr2FpGPi5OfNqYzNsza-42" target="fSr2FpGPi5OfNqYzNsza-73">
          <mxGeometry relative="1" as="geometry" />
        </mxCell>
        <mxCell id="fSr2FpGPi5OfNqYzNsza-80" style="edgeStyle=orthogonalEdgeStyle;rounded=0;orthogonalLoop=1;jettySize=auto;html=1;entryX=0.5;entryY=0;entryDx=0;entryDy=0;strokeColor=#E07A5F;fontColor=#393C56;fillColor=#F2CC8F;" edge="1" parent="WIyWlLk6GJQsqaUBKTNV-1" source="fSr2FpGPi5OfNqYzNsza-42" target="fSr2FpGPi5OfNqYzNsza-77">
          <mxGeometry relative="1" as="geometry" />
        </mxCell>
        <mxCell id="fSr2FpGPi5OfNqYzNsza-42" value="订单管理" style="rounded=1;whiteSpace=wrap;html=1;labelBackgroundColor=none;fillColor=#F2CC8F;strokeColor=#E07A5F;fontColor=#393C56;labelPosition=center;verticalLabelPosition=middle;align=center;verticalAlign=middle;fontFamily=宋体;" vertex="1" parent="WIyWlLk6GJQsqaUBKTNV-1">
          <mxGeometry x="300" y="470" width="50" height="150" as="geometry" />
        </mxCell>
        <mxCell id="fSr2FpGPi5OfNqYzNsza-54" value="修改密码" style="rounded=1;whiteSpace=wrap;html=1;labelBackgroundColor=none;fillColor=#F2CC8F;strokeColor=#E07A5F;fontColor=#393C56;labelPosition=center;verticalLabelPosition=middle;align=center;verticalAlign=middle;fontFamily=宋体;" vertex="1" parent="WIyWlLk6GJQsqaUBKTNV-1">
          <mxGeometry x="160" y="670" width="30" height="150" as="geometry" />
        </mxCell>
        <mxCell id="fSr2FpGPi5OfNqYzNsza-59" value="修改信息" style="rounded=1;whiteSpace=wrap;html=1;labelBackgroundColor=none;fillColor=#F2CC8F;strokeColor=#E07A5F;fontColor=#393C56;labelPosition=center;verticalLabelPosition=middle;align=center;verticalAlign=middle;fontFamily=宋体;" vertex="1" parent="WIyWlLk6GJQsqaUBKTNV-1">
          <mxGeometry x="210" y="670" width="30" height="150" as="geometry" />
        </mxCell>
        <mxCell id="fSr2FpGPi5OfNqYzNsza-73" value="添加订单" style="rounded=1;whiteSpace=wrap;html=1;labelBackgroundColor=none;fillColor=#F2CC8F;strokeColor=#E07A5F;fontColor=#393C56;labelPosition=center;verticalLabelPosition=middle;align=center;verticalAlign=middle;fontFamily=宋体;" vertex="1" parent="WIyWlLk6GJQsqaUBKTNV-1">
          <mxGeometry x="280" y="670" width="30" height="150" as="geometry" />
        </mxCell>
        <mxCell id="fSr2FpGPi5OfNqYzNsza-77" value="订单投诉" style="rounded=1;whiteSpace=wrap;html=1;labelBackgroundColor=none;fillColor=#F2CC8F;strokeColor=#E07A5F;fontColor=#393C56;labelPosition=center;verticalLabelPosition=middle;align=center;verticalAlign=middle;fontFamily=宋体;" vertex="1" parent="WIyWlLk6GJQsqaUBKTNV-1">
          <mxGeometry x="340" y="670" width="30" height="150" as="geometry" />
        </mxCell>
        <mxCell id="fSr2FpGPi5OfNqYzNsza-84" value="司机登录" style="rounded=1;whiteSpace=wrap;html=1;labelBackgroundColor=none;fillColor=#ffe6cc;strokeColor=#d79b00;direction=east;flipV=0;flipH=0;movable=1;resizable=1;rotatable=1;deletable=1;editable=1;locked=0;connectable=1;" vertex="1" parent="WIyWlLk6GJQsqaUBKTNV-1">
          <mxGeometry x="430" y="440" width="30" height="160" as="geometry" />
        </mxCell>
        <mxCell id="fSr2FpGPi5OfNqYzNsza-152" style="edgeStyle=orthogonalEdgeStyle;rounded=0;orthogonalLoop=1;jettySize=auto;html=1;strokeColor=#E07A5F;fontColor=#393C56;fillColor=#F2CC8F;" edge="1" parent="WIyWlLk6GJQsqaUBKTNV-1" source="fSr2FpGPi5OfNqYzNsza-136" target="fSr2FpGPi5OfNqYzNsza-150">
          <mxGeometry relative="1" as="geometry" />
        </mxCell>
        <mxCell id="fSr2FpGPi5OfNqYzNsza-157" style="edgeStyle=orthogonalEdgeStyle;rounded=0;orthogonalLoop=1;jettySize=auto;html=1;entryX=0.25;entryY=0;entryDx=0;entryDy=0;strokeColor=#E07A5F;fontColor=#393C56;fillColor=#F2CC8F;" edge="1" parent="WIyWlLk6GJQsqaUBKTNV-1" source="fSr2FpGPi5OfNqYzNsza-136" target="fSr2FpGPi5OfNqYzNsza-155">
          <mxGeometry relative="1" as="geometry" />
        </mxCell>
        <mxCell id="fSr2FpGPi5OfNqYzNsza-136" value="司机个人中心" style="rounded=1;whiteSpace=wrap;html=1;labelBackgroundColor=none;fillColor=#ffe6cc;strokeColor=#d79b00;direction=east;flipV=0;flipH=0;movable=1;resizable=1;rotatable=1;deletable=1;editable=1;locked=0;connectable=1;" vertex="1" parent="WIyWlLk6GJQsqaUBKTNV-1">
          <mxGeometry x="510" y="440" width="55" height="160" as="geometry" />
        </mxCell>
        <mxCell id="fSr2FpGPi5OfNqYzNsza-158" style="edgeStyle=orthogonalEdgeStyle;rounded=0;orthogonalLoop=1;jettySize=auto;html=1;entryX=0.5;entryY=0;entryDx=0;entryDy=0;strokeColor=#E07A5F;fontColor=#393C56;fillColor=#F2CC8F;" edge="1" parent="WIyWlLk6GJQsqaUBKTNV-1" source="fSr2FpGPi5OfNqYzNsza-139" target="fSr2FpGPi5OfNqYzNsza-144">
          <mxGeometry relative="1" as="geometry" />
        </mxCell>
        <mxCell id="fSr2FpGPi5OfNqYzNsza-139" value="订单状态管理" style="rounded=1;whiteSpace=wrap;html=1;labelBackgroundColor=none;fillColor=#ffe6cc;strokeColor=#d79b00;direction=east;flipV=0;flipH=0;movable=1;resizable=1;rotatable=1;deletable=1;editable=1;locked=0;connectable=1;" vertex="1" parent="WIyWlLk6GJQsqaUBKTNV-1">
          <mxGeometry x="640" y="440" width="50" height="160" as="geometry" />
        </mxCell>
        <mxCell id="fSr2FpGPi5OfNqYzNsza-144" value="编辑订单状态" style="rounded=1;whiteSpace=wrap;html=1;labelBackgroundColor=none;fillColor=#ffe6cc;strokeColor=#d79b00;direction=east;flipV=0;flipH=0;movable=1;resizable=1;rotatable=1;deletable=1;editable=1;locked=0;connectable=1;" vertex="1" parent="WIyWlLk6GJQsqaUBKTNV-1">
          <mxGeometry x="650" y="650" width="30" height="160" as="geometry" />
        </mxCell>
        <mxCell id="fSr2FpGPi5OfNqYzNsza-150" value="司机个人中心" style="rounded=1;whiteSpace=wrap;html=1;labelBackgroundColor=none;fillColor=#ffe6cc;strokeColor=#d79b00;direction=east;flipV=0;flipH=0;movable=1;resizable=1;rotatable=1;deletable=1;editable=1;locked=0;connectable=1;" vertex="1" parent="WIyWlLk6GJQsqaUBKTNV-1">
          <mxGeometry x="490" y="630" width="30" height="160" as="geometry" />
        </mxCell>
        <mxCell id="fSr2FpGPi5OfNqYzNsza-155" value="修改密码" style="rounded=1;whiteSpace=wrap;html=1;labelBackgroundColor=none;fillColor=#ffe6cc;strokeColor=#d79b00;direction=east;flipV=0;flipH=0;movable=1;resizable=1;rotatable=1;deletable=1;editable=1;locked=0;connectable=1;fontColor=#393C56;" vertex="1" parent="WIyWlLk6GJQsqaUBKTNV-1">
          <mxGeometry x="560" y="630" width="30" height="160" as="geometry" />
        </mxCell>
        <mxCell id="fSr2FpGPi5OfNqYzNsza-159" value="管理员登陆" style="rounded=1;whiteSpace=wrap;html=1;labelBackgroundColor=none;fillColor=#F2CC8F;strokeColor=#E07A5F;fontColor=#393C56;" vertex="1" parent="WIyWlLk6GJQsqaUBKTNV-1">
          <mxGeometry x="800" y="510" width="30" height="160" as="geometry" />
        </mxCell>
        <mxCell id="fSr2FpGPi5OfNqYzNsza-161" value="司机管理" style="rounded=1;whiteSpace=wrap;html=1;labelBackgroundColor=none;fillColor=#F2CC8F;strokeColor=#E07A5F;fontColor=#393C56;" vertex="1" parent="WIyWlLk6GJQsqaUBKTNV-1">
          <mxGeometry x="850" y="510" width="30" height="160" as="geometry" />
        </mxCell>
      </root>
    </mxGraphModel>
  </diagram>
</mxfile>
